<svg width="280" height="125" viewBox="0 0 280 125" fill="none" xmlns="http://www.w3.org/2000/svg">
<path d="M279.995 123.992C280.145 107.74 276.626 91.6231 269.644 76.5729C262.661 61.5228 252.353 47.8376 239.315 36.3082C226.277 24.7789 210.768 15.6339 193.683 9.40196C176.598 3.16997 158.277 -0.0255201 139.779 0.000153466C121.28 0.025827 102.971 3.27216 85.9087 9.55153C68.8465 15.8309 53.37 25.0188 40.3735 36.5843C27.3769 48.1498 17.1181 61.8635 10.1898 76.933C3.26157 92.0024 -0.19876 108.129 0.00881407 124.38L2.86149 124.352C2.65815 108.432 6.04797 92.6341 12.8351 77.8717C19.6221 63.1093 29.6719 49.6751 42.4036 38.3453C55.1353 27.0154 70.2965 18.0148 87.0109 11.8633C103.725 5.71191 121.662 2.53173 139.783 2.50658C157.905 2.48143 175.853 5.61181 192.589 11.7168C209.326 17.8218 224.519 26.7804 237.291 38.0748C250.064 49.3692 260.162 62.7755 267.002 77.519C273.842 92.2624 277.289 108.051 277.143 123.971L279.995 123.992Z" fill="#F7DD01"/>
</svg>
