<svg width="24" height="24" viewBox="0 0 24 24" fill="none" xmlns="http://www.w3.org/2000/svg">
<path d="M18.2919 9.696C18.3068 9.568 18.3068 9.41867 18.3068 9.29067C18.3068 6.368 16.5793 4 14.4646 4C12.752 4 11.2926 5.57867 10.8012 7.73333C10.2502 7.15733 9.53537 6.816 8.77588 6.816C7.01862 6.816 5.58898 8.62933 5.58898 10.848C5.58898 11.04 5.60387 11.232 5.61876 11.424C3.53388 11.8933 2 13.5573 2 15.4987C2 17.824 4.18913 19.7227 6.88459 19.7227C7.83768 19.7227 8.71631 19.488 9.46091 19.0827C10.2651 19.616 11.2628 19.9147 12.3351 19.9147C13.3626 19.9147 14.3157 19.6373 15.105 19.1467C15.8049 19.7013 16.6538 20 17.5622 20C20.0194 20 22 17.6747 22 14.816C22 12.256 20.3917 10.1013 18.2919 9.696Z" fill="url(#paint0_radial_54_7952)"/>
<path d="M11.1286 8.09603L11.0095 8.60803L10.6967 8.28803C10.2053 7.77603 9.57983 7.4987 8.93947 7.4987C7.43538 7.4987 6.19934 9.0347 6.19934 10.912C6.19934 11.0614 6.21423 11.232 6.22912 11.4027L6.2738 11.7867L6.02064 11.8507C4.14424 12.2774 2.83374 13.7067 2.83374 15.3067C2.83374 17.2907 4.7846 18.912 7.16732 18.912C8.00128 18.912 8.80545 18.72 9.50537 18.336L9.60962 18.272L9.71386 18.336C10.4734 18.8267 11.3669 19.0827 12.32 19.0827C13.2284 19.0827 14.0921 18.848 14.8218 18.4L14.941 18.336L15.0601 18.4214C15.7005 18.9334 16.46 19.1894 17.2492 19.1894C19.4086 19.1894 21.1658 17.1627 21.1658 14.6667C21.1658 12.448 19.7958 10.592 17.9045 10.208L17.6513 10.1654L17.6811 9.44003C17.6811 6.90136 16.177 4.83203 14.3453 4.83203C12.8561 4.83203 11.5605 6.1547 11.1286 8.09603Z" fill="url(#paint1_radial_54_7952)"/>
<path d="M20.6599 14.5174C20.6599 12.7254 19.4983 11.1894 17.8899 10.8907L17.1155 10.7414C17.1155 10.7414 17.1602 9.33338 17.1602 9.29072C17.1602 7.20005 15.9242 5.51472 14.3903 5.51472C13.601 5.51472 12.8862 5.96272 12.365 6.70939C12.7969 6.32539 13.3181 6.09072 13.8691 6.09072C15.3881 6.09072 16.639 7.77605 16.639 9.86672C16.639 9.90939 16.5943 11.3174 16.5943 11.3174L17.3687 11.4667C18.9771 11.7867 20.1386 13.3014 20.1386 15.0934C20.1386 15.9467 19.8706 16.7147 19.4387 17.3547C20.1833 16.6721 20.6599 15.6481 20.6599 14.5174Z" fill="url(#paint2_radial_54_7952)"/>
<path d="M12.5585 9.07733C12.5585 8.992 12.5733 8.90666 12.5733 8.79999C12.5733 6.90133 11.4564 5.36533 10.0864 5.36533C8.96947 5.36533 8.03127 6.38933 7.71854 7.79733C7.36113 7.41333 6.89948 7.2 6.40804 7.2C5.26135 7.2 4.33805 8.37333 4.33805 9.80266C4.33805 9.93066 4.35294 10.0587 4.35294 10.1867C2.99777 10.5067 2 11.5733 2 12.8533C2 14.368 3.41474 15.584 5.15711 15.584C5.76768 15.584 6.34847 15.4347 6.82502 15.1787C7.34624 15.52 7.9866 15.712 8.68652 15.712C9.35666 15.712 9.96724 15.52 10.4736 15.2213C10.9352 15.584 11.4713 15.776 12.067 15.776C13.6605 15.776 14.9412 14.2613 14.9412 12.4053C14.9561 10.7413 13.9136 9.35466 12.5585 9.07733Z" fill="url(#paint3_radial_54_7952)"/>
<path d="M7.91191 8.05329L7.83745 8.39462L7.64386 8.18129C7.33112 7.83996 6.91415 7.66929 6.51206 7.66929C5.52919 7.66929 4.73991 8.67196 4.73991 9.88796C4.73991 9.99463 4.73991 10.1013 4.7548 10.208L4.78459 10.464L4.60588 10.5066C3.38473 10.7413 2.53589 11.68 2.53589 12.7253C2.53589 14.0053 3.80171 15.0506 5.35048 15.0506C5.8866 15.0506 6.40782 14.9226 6.86947 14.6666L6.94393 14.624L7.0035 14.6666C7.49494 14.9866 8.07573 15.1573 8.6863 15.1573C9.26709 15.1573 9.83299 15.008 10.3095 14.7093L10.384 14.6666L10.4585 14.7306C10.8754 15.0506 11.3669 15.2213 11.8732 15.2213C13.273 15.2213 14.4197 13.8986 14.4197 12.2986C14.4197 10.8693 13.5262 9.65329 12.3051 9.41862L12.1413 9.39729L12.1561 8.92796C12.1561 7.28529 11.1882 5.94129 9.9968 5.94129C9.02882 5.94129 8.19486 6.77329 7.91191 8.05329Z" fill="url(#paint4_radial_54_7952)"/>
<path d="M14.0925 12.192C14.0925 11.04 13.333 10.0373 12.3054 9.8453L11.814 9.73864C11.814 9.73864 11.8438 8.8213 11.8438 8.79997C11.8438 7.45597 11.0396 6.34664 10.0567 6.34664C9.55039 6.34664 9.07384 6.6453 8.74622 7.11463C9.02916 6.85863 9.37168 6.73064 9.72909 6.73064C10.712 6.73064 11.5161 7.81863 11.5161 9.18397C11.5161 9.22663 11.4864 10.1226 11.4864 10.1226L11.9778 10.2293C13.0202 10.4213 13.7648 11.424 13.7648 12.576C13.7648 13.1306 13.601 13.6213 13.3181 14.0266C13.7797 13.6 14.0925 12.9386 14.0925 12.192Z" fill="url(#paint5_radial_54_7952)"/>
<defs>
<radialGradient id="paint0_radial_54_7952" cx="0" cy="0" r="1" gradientUnits="userSpaceOnUse" gradientTransform="translate(15.6696 23.5652) scale(15.7122 22.5083)">
<stop offset="0.005618" stop-color="#A9D1EF"/>
<stop offset="0.5393" stop-color="#1998D5"/>
<stop offset="1" stop-color="#0073BB"/>
</radialGradient>
<radialGradient id="paint1_radial_54_7952" cx="0" cy="0" r="1" gradientUnits="userSpaceOnUse" gradientTransform="translate(19.0279 9.21686) scale(10.8574 15.8876)">
<stop offset="0.005618" stop-color="#A9D1EF"/>
<stop offset="0.5393" stop-color="#1998D5"/>
<stop offset="1" stop-color="#0073BB"/>
</radialGradient>
<radialGradient id="paint2_radial_54_7952" cx="0" cy="0" r="1" gradientUnits="userSpaceOnUse" gradientTransform="translate(16.4939 10.6902) scale(28.7717 23.1003)">
<stop stop-color="#CBEBFB"/>
<stop offset="0.7767" stop-color="#BDCDDA"/>
<stop offset="1" stop-color="#B9C4D0"/>
</radialGradient>
<radialGradient id="paint3_radial_54_7952" cx="0" cy="0" r="1" gradientUnits="userSpaceOnUse" gradientTransform="translate(15.6023 23.3945) scale(15.735 22.4161)">
<stop offset="0.005618" stop-color="#A9D1EF"/>
<stop offset="0.5393" stop-color="#1998D5"/>
<stop offset="1" stop-color="#0073BB"/>
</radialGradient>
<radialGradient id="paint4_radial_54_7952" cx="0" cy="0" r="1" gradientUnits="userSpaceOnUse" gradientTransform="translate(18.9337 9.06452) scale(10.8531 15.9278)">
<stop offset="0.005618" stop-color="#A9D1EF"/>
<stop offset="0.5393" stop-color="#1998D5"/>
<stop offset="1" stop-color="#0073BB"/>
</radialGradient>
<radialGradient id="paint5_radial_54_7952" cx="0" cy="0" r="1" gradientUnits="userSpaceOnUse" gradientTransform="translate(12.5318 9.49765) scale(7.73213 11.0765)">
<stop stop-color="#CBEBFB"/>
<stop offset="0.7767" stop-color="#BDCDDA"/>
<stop offset="1" stop-color="#B9C4D0"/>
</radialGradient>
</defs>
</svg>
