<svg width="16" height="16" viewBox="0 0 16 16" fill="none" xmlns="http://www.w3.org/2000/svg">
<path d="M4.7619 2.85795C4.7619 3.87061 5.22449 4.86077 5.63265 5.7384C5.98639 6.50352 6.28571 7.13362 6.28571 7.74122C6.28571 9.18144 4.87075 10.3516 3.12925 10.3516C1.41497 10.3516 0 9.18144 0 7.74122C0 6.45852 1.85034 3.39804 3.83673 2.43039L4.7619 1.98031V2.85795Z" fill="url(#paint0_radial_5908_11970)"/>
<path d="M4.38097 2.85795C4.38097 3.93812 4.87076 4.95077 5.27893 5.85091C5.60546 6.57103 5.90478 7.20113 5.90478 7.74121C5.90478 9.00141 4.65308 10.0366 3.12927 10.0366C1.60546 10.0366 0.380971 9.00141 0.380971 7.74121C0.380971 6.54852 2.17689 3.60056 4.02723 2.70042L4.38097 2.52039V2.85795Z" fill="url(#paint1_radial_5908_11970)"/>
<path d="M5.17008 7.13363C5.17008 6.70606 5.03403 6.21098 4.84355 5.64839C5.19729 6.39101 5.52382 7.06611 5.52382 7.6062C5.52382 8.77638 4.38097 9.69903 2.99321 9.69903C2.93879 9.69903 2.85716 9.69903 2.80274 9.69903C4.10886 9.60901 5.17008 8.50634 5.17008 7.13363Z" fill="#D1DCEE"/>
<path d="M2.72115 4.79326C2.69394 4.74825 2.72115 4.63573 2.77557 4.56822C2.82999 4.47821 2.91163 4.4557 2.96605 4.50071C2.99326 4.54572 2.99326 4.65824 2.91163 4.72575C2.8572 4.79326 2.77557 4.83826 2.72115 4.79326Z" fill="#F1E6DD"/>
<path d="M1.90478 5.94094C1.85035 5.87342 1.90478 5.6934 2.01362 5.55838C2.12246 5.42335 2.25852 5.37835 2.34015 5.44586C2.39457 5.51337 2.36736 5.6934 2.23131 5.82842C2.12246 5.98594 1.98641 6.03095 1.90478 5.94094Z" fill="#F1E6DD"/>
<path d="M9.034 0.315049V0.517581C9.034 1.12518 9.30611 1.73277 9.55101 2.25035C9.7687 2.70042 9.95917 3.10549 9.95917 3.46554C9.95917 4.32068 9.11564 5.04079 8.05441 5.04079C7.0204 5.04079 6.14965 4.34318 6.14965 3.46554C6.14965 2.67792 7.2653 0.855134 8.46258 0.270042L9.00679 0V0.315049H9.034Z" fill="url(#paint2_radial_5908_11970)"/>
<path d="M8.81633 0.540083C8.81633 1.19269 9.11565 1.80028 9.36055 2.34037C9.55102 2.76793 9.7415 3.15049 9.7415 3.48804C9.7415 4.25316 8.97959 4.86076 8.08164 4.86076C7.15647 4.86076 6.42177 4.23066 6.42177 3.48804C6.42177 2.76793 7.51021 0.990154 8.62585 0.450069L8.84354 0.337552V0.540083H8.81633Z" fill="url(#paint3_radial_5908_11970)"/>
<path d="M9.27886 3.10549C9.27886 2.83545 9.19723 2.5429 9.06117 2.20535C9.27886 2.65542 9.46934 3.06048 9.46934 3.37553C9.46934 4.07314 8.78907 4.63573 7.94553 4.63573C7.91832 4.63573 7.8639 4.63573 7.83669 4.63573C8.65301 4.59072 9.27886 3.91562 9.27886 3.10549Z" fill="#D1DCEE"/>
<path d="M7.80949 1.68777C7.78228 1.66526 7.80949 1.59775 7.8367 1.55274C7.86391 1.50774 7.91834 1.48523 7.94555 1.50774C7.97276 1.53024 7.94555 1.59775 7.91834 1.64276C7.89112 1.68777 7.8367 1.71027 7.80949 1.68777Z" fill="#F1E6DD"/>
<path d="M7.31971 2.38537C7.2925 2.34037 7.31971 2.25035 7.37413 2.16034C7.45576 2.07032 7.53739 2.04782 7.5646 2.09283C7.59181 2.13783 7.5646 2.25035 7.51018 2.31786C7.45576 2.40788 7.34692 2.43038 7.31971 2.38537Z" fill="#F1E6DD"/>
<path d="M9.5238 5.78341C9.5238 6.23348 9.74148 6.68355 9.90475 7.08861C10.068 7.42616 10.2041 7.71871 10.2041 7.98875C10.2041 8.64135 9.57822 9.15893 8.7891 9.15893C7.99999 9.15893 7.37414 8.64135 7.37414 7.98875C7.37414 7.40366 8.21768 6.03094 9.11563 5.60338L9.5238 5.40085V5.78341Z" fill="url(#paint4_radial_5908_11970)"/>
<path d="M9.36054 5.78341C9.36054 6.25598 9.57823 6.72856 9.7687 7.13362C9.93197 7.44867 10.0408 7.74122 10.0408 7.98876C10.0408 8.55134 9.46938 9.02392 8.78911 9.02392C8.10884 9.02392 7.53741 8.55134 7.53741 7.98876C7.53741 7.44867 8.35374 6.12096 9.19728 5.7159L9.36054 5.64839V5.78341Z" fill="url(#paint5_radial_5908_11970)"/>
<path d="M9.71427 7.71871C9.71427 7.51618 9.65985 7.29114 9.55101 7.0436C9.71427 7.38116 9.85033 7.6737 9.85033 7.92124C9.85033 8.43882 9.33332 8.86639 8.70747 8.86639C8.68026 8.86639 8.65305 8.86639 8.62584 8.86639C9.22448 8.82138 9.71427 8.3263 9.71427 7.71871Z" fill="#D1DCEE"/>
<path d="M8.62586 6.66104C8.59865 6.63854 8.62586 6.59353 8.65307 6.54852C8.68028 6.50352 8.70749 6.50352 8.7347 6.52602C8.76191 6.54852 8.7347 6.59353 8.70749 6.63854C8.68028 6.66104 8.62586 6.66104 8.62586 6.66104Z" fill="#F1E6DD"/>
<path d="M8.24492 7.17862C8.21771 7.15612 8.24492 7.06611 8.29934 6.99859C8.35376 6.93108 8.40819 6.90858 8.4354 6.95359C8.46261 6.97609 8.4354 7.06611 8.38098 7.13362C8.32655 7.17862 8.27213 7.20113 8.24492 7.17862Z" fill="#F1E6DD"/>
<path d="M13.1157 9.36146C13.1157 9.81153 13.3334 10.2616 13.4966 10.6667C13.6599 11.0042 13.796 11.2968 13.796 11.5668C13.796 12.2194 13.1701 12.737 12.381 12.737C11.5919 12.737 10.966 12.2194 10.966 11.5668C10.966 10.9817 11.8096 9.609 12.7075 9.18143L13.1157 8.9789V9.36146Z" fill="url(#paint6_radial_5908_11970)"/>
<path d="M12.9524 9.36147C12.9524 9.83404 13.1701 10.3066 13.3606 10.7117C13.5239 11.0267 13.6327 11.3193 13.6327 11.5668C13.6327 12.1294 13.0613 12.602 12.381 12.602C11.7007 12.602 11.1293 12.1294 11.1293 11.5668C11.1293 11.0267 11.9456 9.69902 12.7892 9.29396L12.9524 9.22645V9.36147Z" fill="url(#paint7_radial_5908_11970)"/>
<path d="M13.3062 11.2968C13.3062 11.0942 13.2517 10.8692 13.1429 10.6217C13.3062 10.9592 13.4422 11.2518 13.4422 11.4993C13.4422 12.0169 12.9252 12.4444 12.2994 12.4444C12.2722 12.4444 12.2449 12.4444 12.2177 12.4444C12.8164 12.3994 13.3062 11.9044 13.3062 11.2968Z" fill="#D1DCEE"/>
<path d="M12.1905 10.2391C12.1633 10.2166 12.1905 10.1716 12.2177 10.1266C12.245 10.0816 12.2722 10.0816 12.2994 10.1041C12.3266 10.1266 12.2994 10.1716 12.2722 10.2166C12.245 10.2391 12.2177 10.2616 12.1905 10.2391Z" fill="#F1E6DD"/>
<path d="M11.8368 10.7567C11.8096 10.7342 11.8368 10.6442 11.8912 10.5767C11.9457 10.5091 12.0001 10.4866 12.0273 10.5316C12.0545 10.5541 12.0273 10.6442 11.9729 10.7117C11.9184 10.7792 11.864 10.7792 11.8368 10.7567Z" fill="#F1E6DD"/>
<path d="M8.13603 10.2841V10.5316C8.13603 11.2743 8.46256 11.9944 8.76188 12.647C9.00678 13.1871 9.25168 13.6821 9.25168 14.1097C9.25168 15.1674 8.21767 16 6.96597 16C5.68706 16 4.68025 15.1449 4.68025 14.1097C4.68025 13.1646 6.0408 10.9367 7.48297 10.2166L8.16325 9.87904V10.2841H8.13603Z" fill="url(#paint8_radial_5908_11970)"/>
<path d="M7.86394 10.5316C7.86394 11.3193 8.21768 12.0619 8.517 12.7145C8.7619 13.2321 8.97958 13.7046 8.97958 14.0872C8.97958 15.0098 8.08162 15.7525 6.96598 15.7525C5.85033 15.7525 4.95237 15.0098 4.95237 14.0872C4.95237 13.2096 6.28571 11.0492 7.61904 10.3966L7.89115 10.2616V10.5316H7.86394Z" fill="url(#paint9_radial_5908_11970)"/>
<path d="M8.43539 13.6596C8.43539 13.3446 8.32655 12.9845 8.19049 12.5795C8.43539 13.1195 8.68029 13.6146 8.68029 13.9972C8.68029 14.8523 7.86396 15.5274 6.82995 15.5274C6.77553 15.5274 6.74832 15.5274 6.69389 15.5274C7.64628 15.4599 8.43539 14.6498 8.43539 13.6596Z" fill="#D1DCEE"/>
<path d="M6.63943 11.9269C6.61221 11.9044 6.63943 11.8143 6.66664 11.7693C6.72106 11.7018 6.77548 11.6793 6.80269 11.7243C6.8299 11.7468 6.80269 11.8368 6.77548 11.8819C6.74827 11.9494 6.66664 11.9719 6.63943 11.9269Z" fill="#F1E6DD"/>
<path d="M6.0408 12.782C5.98638 12.737 6.0408 12.602 6.12243 12.512C6.20406 12.4219 6.31291 12.3769 6.34012 12.4219C6.39454 12.4669 6.36733 12.602 6.25849 12.692C6.20406 12.8045 6.09522 12.827 6.0408 12.782Z" fill="#F1E6DD"/>
<path d="M14.8844 1.75528V2.00282C14.8844 2.74543 15.2109 3.46554 15.5102 4.11815C15.7551 4.65823 16 5.15331 16 5.58088C16 6.63854 14.966 7.47117 13.7143 7.47117C12.4354 7.47117 11.4286 6.61604 11.4286 5.58088C11.4286 4.63573 12.7891 2.40788 14.2313 1.68777L14.9116 1.35021V1.75528H14.8844Z" fill="url(#paint10_radial_5908_11970)"/>
<path d="M14.6123 2.00281C14.6123 2.79044 14.966 3.53305 15.2653 4.18566C15.5102 4.70324 15.7279 5.17581 15.7279 5.55837C15.7279 6.48102 14.8299 7.24614 13.6871 7.24614C12.5714 7.24614 11.6735 6.50352 11.6735 5.55837C11.6735 4.68073 13.0068 2.5204 14.3401 1.86779L14.6123 1.73277V2.00281Z" fill="url(#paint11_radial_5908_11970)"/>
<path d="M15.1837 5.1308C15.1837 4.81575 15.0749 4.4557 14.9388 4.05063C15.1837 4.59072 15.4286 5.08579 15.4286 5.46836C15.4286 6.32349 14.6123 6.99859 13.5783 6.99859C13.5238 6.99859 13.4966 6.99859 13.4422 6.99859C14.3946 6.95359 15.1837 6.14346 15.1837 5.1308Z" fill="#D1DCEE"/>
<path d="M13.3877 3.42054C13.3605 3.39804 13.3877 3.30803 13.415 3.26302C13.4694 3.19551 13.5238 3.17301 13.551 3.21801C13.5782 3.24052 13.551 3.33053 13.5238 3.37554C13.4694 3.42054 13.415 3.44305 13.3877 3.42054Z" fill="#F1E6DD"/>
<path d="M12.7891 4.27567C12.7347 4.23067 12.7891 4.09565 12.8708 4.00563C12.9524 3.91562 13.0612 3.87061 13.0884 3.91562C13.1429 3.96063 13.1156 4.09565 13.0068 4.18566C12.9524 4.27567 12.8435 4.32068 12.7891 4.27567Z" fill="#F1E6DD"/>
<defs>
<radialGradient id="paint0_radial_5908_11970" cx="0" cy="0" r="1" gradientUnits="userSpaceOnUse" gradientTransform="translate(0.678921 4.81616) scale(26.0703 16.1888)">
<stop offset="0.005618" stop-color="#D3DFF2"/>
<stop offset="0.5393" stop-color="#1998D5"/>
<stop offset="1" stop-color="#0073BB"/>
</radialGradient>
<radialGradient id="paint1_radial_5908_11970" cx="0" cy="0" r="1" gradientUnits="userSpaceOnUse" gradientTransform="translate(7.55926 8.29723) rotate(180) scale(10.916 6.63458)">
<stop offset="0.005618" stop-color="#A9D1EF"/>
<stop offset="0.5393" stop-color="#1998D5"/>
<stop offset="1" stop-color="#0073BB"/>
</radialGradient>
<radialGradient id="paint2_radial_5908_11970" cx="0" cy="0" r="1" gradientUnits="userSpaceOnUse" gradientTransform="translate(0.212204 4.4845) scale(25.8888 16.1805)">
<stop offset="0.005618" stop-color="#D3DFF2"/>
<stop offset="0.5393" stop-color="#1998D5"/>
<stop offset="1" stop-color="#0073BB"/>
</radialGradient>
<radialGradient id="paint3_radial_5908_11970" cx="0" cy="0" r="1" gradientUnits="userSpaceOnUse" gradientTransform="translate(8.68048 7.44758) rotate(180) scale(10.9239 6.6304)">
<stop offset="0.005618" stop-color="#A9D1EF"/>
<stop offset="0.5393" stop-color="#1998D5"/>
<stop offset="1" stop-color="#0073BB"/>
</radialGradient>
<radialGradient id="paint4_radial_5908_11970" cx="0" cy="0" r="1" gradientUnits="userSpaceOnUse" gradientTransform="translate(0.770423 4.79641) scale(26.0292 16.2098)">
<stop offset="0.005618" stop-color="#D3DFF2"/>
<stop offset="0.5393" stop-color="#1998D5"/>
<stop offset="1" stop-color="#0073BB"/>
</radialGradient>
<radialGradient id="paint5_radial_5908_11970" cx="0" cy="0" r="1" gradientUnits="userSpaceOnUse" gradientTransform="translate(8.29378 7.7674) rotate(180) scale(10.8223 6.6377)">
<stop offset="0.005618" stop-color="#A9D1EF"/>
<stop offset="0.5393" stop-color="#1998D5"/>
<stop offset="1" stop-color="#0073BB"/>
</radialGradient>
<radialGradient id="paint6_radial_5908_11970" cx="0" cy="0" r="1" gradientUnits="userSpaceOnUse" gradientTransform="translate(0.755106 4.81939) scale(26.0302 16.2104)">
<stop offset="0.005618" stop-color="#D3DFF2"/>
<stop offset="0.5393" stop-color="#1998D5"/>
<stop offset="1" stop-color="#0073BB"/>
</radialGradient>
<radialGradient id="paint7_radial_5908_11970" cx="0" cy="0" r="1" gradientUnits="userSpaceOnUse" gradientTransform="translate(8.27595 7.79207) rotate(180) scale(10.8221 6.63756)">
<stop offset="0.005618" stop-color="#A9D1EF"/>
<stop offset="0.5393" stop-color="#1998D5"/>
<stop offset="1" stop-color="#0073BB"/>
</radialGradient>
<radialGradient id="paint8_radial_5908_11970" cx="0" cy="0" r="1" gradientUnits="userSpaceOnUse" gradientTransform="translate(0.234109 4.6277) scale(26.1833 16.172)">
<stop offset="0.005618" stop-color="#D3DFF2"/>
<stop offset="0.5393" stop-color="#1998D5"/>
<stop offset="1" stop-color="#0073BB"/>
</radialGradient>
<radialGradient id="paint9_radial_5908_11970" cx="0" cy="0" r="1" gradientUnits="userSpaceOnUse" gradientTransform="translate(8.01768 7.99037) rotate(180) scale(10.9333 6.63167)">
<stop offset="0.005618" stop-color="#A9D1EF"/>
<stop offset="0.5393" stop-color="#1998D5"/>
<stop offset="1" stop-color="#0073BB"/>
</radialGradient>
<radialGradient id="paint10_radial_5908_11970" cx="0" cy="0" r="1" gradientUnits="userSpaceOnUse" gradientTransform="translate(0.21342 4.6588) scale(26.1835 16.1721)">
<stop offset="0.005618" stop-color="#D3DFF2"/>
<stop offset="0.5393" stop-color="#1998D5"/>
<stop offset="1" stop-color="#0073BB"/>
</radialGradient>
<radialGradient id="paint11_radial_5908_11970" cx="0" cy="0" r="1" gradientUnits="userSpaceOnUse" gradientTransform="translate(8.0472 7.99328) rotate(180) scale(10.8599 6.60461)">
<stop offset="0.005618" stop-color="#A9D1EF"/>
<stop offset="0.5393" stop-color="#1998D5"/>
<stop offset="1" stop-color="#0073BB"/>
</radialGradient>
</defs>
</svg>
