<svg width="17" height="17" viewBox="0 0 17 17" fill="none" xmlns="http://www.w3.org/2000/svg">
<g clip-path="url(#clip0_49_104)">
<path d="M16.6304 8.13043H14.0246C13.9415 6.8802 13.4448 5.74415 12.6668 4.85572L14.6743 2.84824C14.8188 2.70374 14.8188 2.47017 14.6743 2.32567C14.5298 2.18117 14.2963 2.18117 14.1518 2.32567L12.1443 4.33315C11.2558 3.55522 10.1198 3.05852 8.86957 2.97537V0.369565C8.86957 0.165565 8.70437 0 8.5 0C8.29563 0 8.13043 0.165565 8.13043 0.369565V2.97537C6.8802 3.05852 5.74415 3.55522 4.85572 4.33315L2.84824 2.32567C2.70374 2.18117 2.47017 2.18117 2.32567 2.32567C2.18117 2.47017 2.18117 2.70374 2.32567 2.84824L4.33315 4.85572C3.55522 5.74415 3.05852 6.8802 2.97537 8.13043H0.369565C0.165196 8.13043 0 8.296 0 8.5C0 8.704 0.165196 8.86957 0.369565 8.86957H3.32535C3.32572 8.86957 3.32609 8.86957 3.32609 8.86957H3.32683H13.6728C13.6732 8.86957 13.6735 8.86957 13.6735 8.86957H13.6743H16.6304C16.8348 8.86957 17 8.704 17 8.5C17 8.296 16.8348 8.13043 16.6304 8.13043ZM3.7145 8.13043C3.90446 5.65361 5.97587 3.69565 8.5 3.69565C11.0241 3.69565 13.0955 5.65361 13.2855 8.13043H3.7145Z" fill="#F6DD01"/>
<path d="M10.9788 14.1518C10.8343 14.0073 10.6007 14.0073 10.4562 14.1518L8.8697 15.7383V10.7174C8.8697 10.5134 8.7045 10.3478 8.50013 10.3478C8.29576 10.3478 8.13057 10.5134 8.13057 10.7174V15.7383L6.54403 14.1518C6.39953 14.0073 6.16596 14.0073 6.02146 14.1518C5.87696 14.2963 5.87696 14.5298 6.02146 14.6743L8.23848 16.8913C8.27248 16.9257 8.3135 16.9527 8.35896 16.9715C8.40405 16.99 8.45209 17 8.50013 17C8.54818 17 8.59622 16.99 8.64131 16.9715C8.68676 16.9527 8.72742 16.9257 8.76179 16.8913L10.9788 14.6743C11.1233 14.5298 11.1233 14.2963 10.9788 14.1518Z" fill="#F6DD01"/>
</g>
<defs>
<clipPath id="clip0_49_104">
<rect width="17" height="17" fill="white"/>
</clipPath>
</defs>
</svg>
