<svg width="24" height="24" viewBox="0 0 24 24" fill="none" xmlns="http://www.w3.org/2000/svg">
<path d="M17.0346 6.84832C17.0346 6.77566 17.0509 6.71753 17.0509 6.64487C17.0509 5.17711 15.6823 4 13.9878 4C12.6029 4 11.446 4.78474 11.055 5.86013C10.6151 5.56948 10.0448 5.3951 9.42566 5.3951C8.02444 5.3951 6.86762 6.2961 6.86762 7.40055C6.86762 7.50227 6.88391 7.58947 6.9002 7.69119C5.23829 7.93824 4 8.75205 4 9.74024C4 10.9028 5.74338 11.8474 7.91039 11.8474C8.67617 11.8474 9.37678 11.7312 9.97963 11.5277C10.6314 11.7893 11.4134 11.9491 12.277 11.9491C13.1079 11.9491 13.8574 11.8038 14.4929 11.5713C15.0631 11.8474 15.7312 12.0073 16.4481 12.0073C18.4033 12.0073 20 10.8447 20 9.42053C20 8.11263 18.7291 7.05177 17.0346 6.84832Z" fill="url(#paint0_radial_5908_11969)"/>
<path d="M11.3156 6.04904L11.2179 6.31062L10.9735 6.15077C10.5824 5.88919 10.0773 5.74386 9.57224 5.74386C8.36653 5.74386 7.38894 6.51407 7.38894 7.44414C7.38894 7.5168 7.38894 7.60399 7.40523 7.69119L7.43782 7.8801L7.226 7.90917C5.72702 8.12715 4.66796 8.83923 4.66796 9.63851C4.66796 10.6267 6.23211 11.426 8.13843 11.426C8.80645 11.426 9.45818 11.3242 10.0122 11.1353L10.0936 11.1063L10.1751 11.1353C10.7779 11.3824 11.4948 11.5132 12.2606 11.5132C12.9775 11.5132 13.6781 11.3969 14.2647 11.1644L14.3625 11.1208L14.4602 11.1644C14.9816 11.4114 15.5845 11.5422 16.2036 11.5422C17.9307 11.5422 19.3482 10.5395 19.3482 9.28973C19.3482 8.18528 18.2566 7.25522 16.7413 7.0663L16.5458 7.03723L16.5621 6.67393C16.5458 5.45322 15.3401 4.42143 13.8737 4.42143C12.6843 4.42143 11.6578 5.07538 11.3156 6.04904Z" fill="url(#paint1_radial_5908_11969)"/>
<path d="M18.9247 9.23162C18.9247 8.34515 17.996 7.57494 16.7088 7.41509L16.0896 7.34243C16.0896 7.34243 16.1222 6.64488 16.1222 6.61581C16.1222 5.58403 15.1283 4.74115 13.9063 4.74115C13.2709 4.74115 12.7006 4.95914 12.2933 5.33698C12.6355 5.14806 13.0591 5.0318 13.499 5.0318C14.7373 5.04633 15.7312 5.8892 15.7312 6.92099C15.7312 6.95006 15.6986 7.6476 15.6986 7.6476L16.3177 7.72027C17.6049 7.88012 18.5336 8.6358 18.5336 9.5368C18.5336 9.95823 18.3218 10.3506 17.9797 10.6558C18.5499 10.307 18.9247 9.81291 18.9247 9.23162Z" fill="url(#paint2_radial_5908_11969)"/>
<path d="M12.4562 6.52863C12.4562 6.48503 12.4562 6.44144 12.4562 6.39784C12.4562 5.45324 11.5601 4.68303 10.4684 4.68303C9.5723 4.68303 8.82281 5.19166 8.56212 5.88921C8.26884 5.70029 7.91039 5.58403 7.50305 5.58403C6.59063 5.58403 5.85743 6.16532 5.85743 6.89194C5.85743 6.95006 5.85743 7.02273 5.87373 7.08085C4.79837 7.24071 4 7.7784 4 8.40329C4 9.15897 5.14053 9.76932 6.52546 9.76932C7.01426 9.76932 7.47047 9.69666 7.86151 9.56587C8.28513 9.74026 8.79022 9.84198 9.36049 9.84198C9.89817 9.84198 10.387 9.75479 10.7943 9.59493C11.1527 9.76932 11.5927 9.87105 12.0652 9.87105C13.336 9.87105 14.3625 9.11537 14.3625 8.19984C14.3788 7.35697 13.5479 6.65942 12.4562 6.52863Z" fill="url(#paint3_radial_5908_11969)"/>
<path d="M8.74137 6.02002L8.67619 6.17987L8.51326 6.07814C8.25257 5.91829 7.9267 5.81656 7.60084 5.81656C6.81876 5.81656 6.18332 6.31066 6.18332 6.92102C6.18332 6.97914 6.18332 7.02274 6.19961 7.08087L6.21591 7.21166L6.06927 7.22619C5.09167 7.37152 4.40735 7.82201 4.40735 8.34518C4.40735 8.98459 5.41754 9.50776 6.65583 9.50776C7.07945 9.50776 7.50308 9.44963 7.87782 9.31884L7.9267 9.3043L7.97558 9.31884C8.36662 9.47869 8.83913 9.56589 9.32792 9.56589C9.80043 9.56589 10.2403 9.49322 10.6314 9.3479L10.6966 9.31884L10.7617 9.3479C11.1039 9.50776 11.4949 9.59495 11.9023 9.59495C13.0265 9.59495 13.9389 8.941 13.9389 8.14172C13.9389 7.42964 13.222 6.81929 12.2444 6.70303L12.1141 6.6885L12.1304 6.45598C12.1304 5.64218 11.3483 4.97369 10.4033 4.97369C9.6375 4.95916 8.96947 5.3806 8.74137 6.02002Z" fill="url(#paint4_radial_5908_11969)"/>
<path d="M13.6781 8.08357C13.6781 7.50228 13.0753 7.00819 12.2443 6.90646L11.8533 6.86287C11.8533 6.86287 11.8696 6.41237 11.8696 6.39783C11.8696 5.72935 11.2179 5.17712 10.4358 5.17712C10.0284 5.17712 9.6537 5.32245 9.39301 5.55496C9.62112 5.42417 9.88181 5.35151 10.1751 5.35151C10.9735 5.35151 11.6089 5.90374 11.6089 6.57222C11.6089 6.58675 11.5926 7.03725 11.5926 7.03725L11.9836 7.08085C12.8146 7.18257 13.4174 7.67667 13.4174 8.25796C13.4174 8.53407 13.2871 8.78112 13.059 8.98457C13.4337 8.78112 13.6781 8.44688 13.6781 8.08357Z" fill="url(#paint5_radial_5908_11969)"/>
<path d="M8.96943 11.5132C8.96943 12.1671 9.24642 12.8065 9.49082 13.3733C9.70263 13.8674 9.88185 14.2743 9.88185 14.6667C9.88185 15.5967 9.0346 16.3524 7.99183 16.3524C6.94906 16.3524 6.11811 15.5967 6.11811 14.6812C6.11811 13.8529 7.22605 11.8765 8.41546 11.2516L8.96943 10.9609V11.5132Z" fill="url(#paint6_radial_5908_11969)"/>
<path d="M8.74137 11.5277C8.74137 12.2252 9.03465 12.8792 9.27905 13.4605C9.47457 13.9255 9.6538 14.3324 9.6538 14.6812C9.6538 15.495 8.90431 16.1635 7.99188 16.1635C7.07946 16.1635 6.32997 15.495 6.32997 14.6812C6.32997 13.8964 7.42162 11.9927 8.52956 11.4114L8.74137 11.2952V11.5277Z" fill="url(#paint7_radial_5908_11969)"/>
<path d="M9.21393 14.2888C9.21393 14.0127 9.13246 13.693 9.01841 13.3297C9.23022 13.8092 9.42574 14.2452 9.42574 14.594C9.42574 15.3351 8.74142 15.9455 7.91047 15.9455C7.87788 15.9455 7.829 15.9455 7.79641 15.9455C8.57849 15.8874 9.21393 15.1607 9.21393 14.2888Z" fill="#D1DCEE"/>
<path d="M7.74751 12.7629C7.73122 12.7339 7.73122 12.6612 7.7801 12.6176C7.81269 12.5595 7.86157 12.545 7.89415 12.574C7.91045 12.6031 7.91045 12.6757 7.86157 12.7193C7.82898 12.7775 7.7801 12.792 7.74751 12.7629Z" fill="#F1E6DD"/>
<path d="M7.2587 13.5186C7.22611 13.475 7.2587 13.3587 7.32387 13.2716C7.38904 13.1844 7.47051 13.1553 7.51939 13.1989C7.55198 13.2425 7.53568 13.3587 7.45422 13.4459C7.38904 13.5331 7.29128 13.5622 7.2587 13.5186Z" fill="#F1E6DD"/>
<path d="M11.5275 9.88557V10.0164C11.5275 10.4087 11.6904 10.8011 11.837 11.1353C11.9674 11.426 12.0814 11.6876 12.0814 11.9201C12.0814 12.4723 11.5763 12.9373 10.9409 12.9373C10.3217 12.9373 9.80036 12.4868 9.80036 11.9201C9.80036 11.4115 10.4684 10.2343 11.1853 9.8565L11.5112 9.68212V9.88557H11.5275Z" fill="url(#paint8_radial_5908_11969)"/>
<path d="M11.3971 10.0163C11.3971 10.4378 11.5763 10.8302 11.7229 11.1789C11.837 11.455 11.951 11.7021 11.951 11.9201C11.951 12.4142 11.4948 12.8065 10.9572 12.8065C10.4195 12.8065 9.96326 12.3996 9.96326 11.9201C9.96326 11.455 10.615 10.307 11.283 9.95822L11.4134 9.88556V10.0163H11.3971Z" fill="url(#paint9_radial_5908_11969)"/>
<path d="M11.6742 11.6731C11.6742 11.4987 11.6253 11.3097 11.5601 11.0918C11.6905 11.3824 11.8045 11.644 11.8045 11.8474C11.8045 12.2979 11.3972 12.6612 10.8921 12.6612C10.8758 12.6612 10.8432 12.6612 10.8269 12.6612C11.2994 12.6467 11.6742 12.2107 11.6742 11.6731Z" fill="#D1DCEE"/>
<path d="M10.7942 10.7575C10.778 10.743 10.7942 10.6994 10.8105 10.6703C10.8268 10.6412 10.8594 10.6267 10.8757 10.6412C10.892 10.6558 10.8757 10.6994 10.8594 10.7284C10.8431 10.772 10.8105 10.7866 10.7942 10.7575Z" fill="#F1E6DD"/>
<path d="M10.501 11.2225C10.4847 11.1934 10.501 11.1353 10.5336 11.0772C10.5824 11.0191 10.6313 11.0045 10.6476 11.0336C10.6639 11.0627 10.6476 11.1208 10.615 11.1789C10.5661 11.2225 10.5173 11.237 10.501 11.2225Z" fill="#F1E6DD"/>
<path d="M11.8208 13.4169C11.8208 13.7075 11.9511 13.9982 12.0489 14.2598C12.1466 14.4778 12.2281 14.6667 12.2281 14.8411C12.2281 15.2625 11.8533 15.5967 11.3808 15.5967C10.9083 15.5967 10.5336 15.2625 10.5336 14.8411C10.5336 14.4632 11.0387 13.5768 11.5764 13.3006L11.8208 13.1553V13.4169Z" fill="url(#paint10_radial_5908_11969)"/>
<path d="M11.7229 13.4169C11.7229 13.7221 11.8533 14.0273 11.9673 14.2888C12.0651 14.4923 12.1303 14.6812 12.1303 14.8411C12.1303 15.2044 11.7881 15.5096 11.3808 15.5096C10.9735 15.5096 10.6313 15.2044 10.6313 14.8411C10.6313 14.4923 11.1201 13.6349 11.6252 13.3733L11.7229 13.3297V13.4169Z" fill="url(#paint11_radial_5908_11969)"/>
<path d="M11.9348 14.6521C11.9348 14.5213 11.9022 14.376 11.837 14.2162C11.9348 14.4341 12.0162 14.6231 12.0162 14.7829C12.0162 15.1172 11.7067 15.3933 11.3319 15.3933C11.3156 15.3933 11.2993 15.3933 11.283 15.3933C11.6415 15.3642 11.9348 15.0445 11.9348 14.6521Z" fill="#D1DCEE"/>
<path d="M11.2668 13.9691C11.2505 13.9546 11.2668 13.9255 11.2831 13.8965C11.2994 13.8674 11.3157 13.8674 11.332 13.8819C11.3483 13.8965 11.332 13.9255 11.3157 13.9546C11.2994 13.9691 11.2831 13.9837 11.2668 13.9691Z" fill="#F1E6DD"/>
<path d="M11.055 14.3033C11.0387 14.2743 11.055 14.2307 11.0876 14.1871C11.1202 14.1435 11.1528 14.129 11.169 14.158C11.1853 14.1726 11.169 14.2307 11.1365 14.2743C11.1039 14.3179 11.0713 14.3324 11.055 14.3033Z" fill="#F1E6DD"/>
<path d="M13.9715 15.7275C13.9715 16.0182 14.1019 16.3088 14.1996 16.5704C14.2974 16.7884 14.3789 16.9773 14.3789 17.1517C14.3789 17.5731 14.0041 17.9074 13.5316 17.9074C13.0591 17.9074 12.6844 17.5731 12.6844 17.1517C12.6844 16.7739 13.1895 15.8874 13.7271 15.6113L13.9715 15.4805V15.7275Z" fill="url(#paint12_radial_5908_11969)"/>
<path d="M13.8575 15.7275C13.8575 16.0327 13.9878 16.3379 14.1019 16.5995C14.1997 16.8029 14.2648 16.9918 14.2648 17.1517C14.2648 17.515 13.9227 17.8202 13.5153 17.8202C13.108 17.8202 12.7658 17.515 12.7658 17.1517C12.7658 16.8029 13.2546 15.9455 13.7597 15.6839L13.8575 15.6403V15.7275Z" fill="url(#paint13_radial_5908_11969)"/>
<path d="M14.0693 16.9628C14.0693 16.832 14.0367 16.6867 13.9716 16.5268C14.0693 16.7448 14.1508 16.9337 14.1508 17.0936C14.1508 17.4278 13.8412 17.7039 13.4665 17.7039C13.4502 17.7039 13.4339 17.7039 13.4176 17.7039C13.7923 17.6894 14.0693 17.3552 14.0693 16.9628Z" fill="#D1DCEE"/>
<path d="M13.4176 16.2797C13.4013 16.2652 13.4176 16.2361 13.4339 16.2071C13.4501 16.178 13.4664 16.178 13.4827 16.1925C13.499 16.2071 13.4827 16.2361 13.4664 16.2652C13.4501 16.2943 13.4339 16.2943 13.4176 16.2797Z" fill="#F1E6DD"/>
<path d="M13.2058 16.614C13.1895 16.5994 13.2058 16.5413 13.2384 16.4977C13.2709 16.4541 13.3035 16.4396 13.3198 16.4686C13.3361 16.4832 13.3198 16.5413 13.2872 16.5849C13.2546 16.6285 13.2221 16.643 13.2058 16.614Z" fill="#F1E6DD"/>
<path d="M10.9735 16.3088V16.4687C10.9735 16.9482 11.169 17.4133 11.3482 17.8347C11.4949 18.1835 11.6415 18.5032 11.6415 18.7793C11.6415 19.4623 11.0224 20 10.2729 20C9.5071 20 8.90425 19.4478 8.90425 18.7793C8.90425 18.1689 9.71891 16.7302 10.5825 16.2652L10.9898 16.0472V16.3088H10.9735Z" fill="url(#paint14_radial_5908_11969)"/>
<path d="M10.8106 16.4687C10.8106 16.9773 11.0224 17.4569 11.2016 17.8783C11.3483 18.2125 11.4786 18.5177 11.4786 18.7648C11.4786 19.3606 10.9409 19.8402 10.2566 19.8402C9.5886 19.8402 9.05092 19.3606 9.05092 18.7648C9.05092 18.198 9.84929 16.8029 10.6477 16.3815L10.8106 16.2943V16.4687Z" fill="url(#paint15_radial_5908_11969)"/>
<path d="M11.1528 18.4886C11.1528 18.2852 11.0876 18.0527 11.0061 17.7911C11.1528 18.1399 11.2994 18.4596 11.2994 18.7066C11.2994 19.2589 10.8106 19.6948 10.1915 19.6948C10.1589 19.6948 10.1426 19.6948 10.11 19.6948C10.6966 19.6658 11.1528 19.1281 11.1528 18.4886Z" fill="#D1DCEE"/>
<path d="M10.0936 17.3842C10.0773 17.3697 10.0936 17.3115 10.1099 17.2825C10.1425 17.2389 10.1751 17.2243 10.1914 17.2534C10.2077 17.2679 10.1914 17.3261 10.1751 17.3551C10.1425 17.3842 10.1099 17.3987 10.0936 17.3842Z" fill="#F1E6DD"/>
<path d="M9.7352 17.9364C9.70261 17.9074 9.7352 17.8202 9.78408 17.762C9.83296 17.7039 9.89813 17.6748 9.91443 17.7039C9.94701 17.733 9.93072 17.8202 9.86555 17.8783C9.83296 17.9364 9.76779 17.9655 9.7352 17.9364Z" fill="#F1E6DD"/>
<path d="M15.0143 10.8156V10.9755C15.0143 11.455 15.2098 11.9201 15.389 12.3415C15.5357 12.6903 15.6823 13.01 15.6823 13.2861C15.6823 13.9691 15.0632 14.5068 14.3137 14.5068C13.5479 14.5068 12.945 13.9546 12.945 13.2861C12.945 12.6758 13.7597 11.2371 14.6232 10.772L15.0306 10.554V10.8156H15.0143Z" fill="url(#paint16_radial_5908_11969)"/>
<path d="M14.8514 10.9755C14.8514 11.4841 15.0632 11.9637 15.2424 12.3851C15.3891 12.7194 15.5194 13.0245 15.5194 13.2716C15.5194 13.8674 14.9817 14.347 14.2974 14.347C13.6294 14.347 13.0917 13.8674 13.0917 13.2716C13.0917 12.7048 13.8901 11.3097 14.6885 10.8883L14.8514 10.8011V10.9755Z" fill="url(#paint17_radial_5908_11969)"/>
<path d="M15.1936 12.9955C15.1936 12.792 15.1284 12.5595 15.0469 12.2979C15.1936 12.6467 15.3402 12.9664 15.3402 13.2135C15.3402 13.7657 14.8514 14.2016 14.2323 14.2016C14.1997 14.2016 14.1834 14.2016 14.1508 14.2016C14.7374 14.158 15.1936 13.6349 15.1936 12.9955Z" fill="#D1DCEE"/>
<path d="M14.1344 11.8765C14.1181 11.8619 14.1344 11.8038 14.1507 11.7748C14.1833 11.7312 14.2159 11.7166 14.2322 11.7457C14.2485 11.7602 14.2322 11.8184 14.2159 11.8474C14.1833 11.891 14.1507 11.9055 14.1344 11.8765Z" fill="#F1E6DD"/>
<path d="M13.776 12.4287C13.7434 12.3996 13.776 12.3124 13.8249 12.2543C13.8738 12.1962 13.9389 12.1671 13.9552 12.1962C13.9878 12.2253 13.9715 12.3124 13.9063 12.3706C13.8575 12.4432 13.7923 12.4578 13.776 12.4287Z" fill="#F1E6DD"/>
<defs>
<radialGradient id="paint0_radial_5908_11969" cx="0" cy="0" r="1" gradientUnits="userSpaceOnUse" gradientTransform="translate(15.0059 23.6016) scale(12.5785 22.4176)">
<stop offset="0.005618" stop-color="#A9D1EF"/>
<stop offset="0.5393" stop-color="#1998D5"/>
<stop offset="1" stop-color="#0073BB"/>
</radialGradient>
<radialGradient id="paint1_radial_5908_11969" cx="0" cy="0" r="1" gradientUnits="userSpaceOnUse" gradientTransform="translate(17.6861 9.35671) scale(8.68336 15.9667)">
<stop offset="0.005618" stop-color="#A9D1EF"/>
<stop offset="0.5393" stop-color="#1998D5"/>
<stop offset="1" stop-color="#0073BB"/>
</radialGradient>
<radialGradient id="paint2_radial_5908_11969" cx="0" cy="0" r="1" gradientUnits="userSpaceOnUse" gradientTransform="translate(15.7894 10.8312) scale(23.0536 23.049)">
<stop stop-color="#CBEBFB"/>
<stop offset="0.7767" stop-color="#BDCDDA"/>
<stop offset="1" stop-color="#B9C4D0"/>
</radialGradient>
<radialGradient id="paint3_radial_5908_11969" cx="0" cy="0" r="1" gradientUnits="userSpaceOnUse" gradientTransform="translate(14.8261 23.2933) scale(12.5837 22.4185)">
<stop offset="0.005618" stop-color="#A9D1EF"/>
<stop offset="0.5393" stop-color="#1998D5"/>
<stop offset="1" stop-color="#0073BB"/>
</radialGradient>
<radialGradient id="paint4_radial_5908_11969" cx="0" cy="0" r="1" gradientUnits="userSpaceOnUse" gradientTransform="translate(17.5001 8.94178) scale(8.66568 15.9403)">
<stop offset="0.005618" stop-color="#A9D1EF"/>
<stop offset="0.5393" stop-color="#1998D5"/>
<stop offset="1" stop-color="#0073BB"/>
</radialGradient>
<radialGradient id="paint5_radial_5908_11969" cx="0" cy="0" r="1" gradientUnits="userSpaceOnUse" gradientTransform="translate(15.3529 10.5763) scale(23.1119 23.2001)">
<stop stop-color="#CBEBFB"/>
<stop offset="0.7767" stop-color="#BDCDDA"/>
<stop offset="1" stop-color="#B9C4D0"/>
</radialGradient>
<radialGradient id="paint6_radial_5908_11969" cx="0" cy="0" r="1" gradientUnits="userSpaceOnUse" gradientTransform="translate(4.65545 8.80418) scale(26.0706 16.2326)">
<stop offset="0.005618" stop-color="#D3DFF2"/>
<stop offset="0.5393" stop-color="#1998D5"/>
<stop offset="1" stop-color="#0073BB"/>
</radialGradient>
<radialGradient id="paint7_radial_5908_11969" cx="0" cy="0" r="1" gradientUnits="userSpaceOnUse" gradientTransform="translate(11.5759 12.293) rotate(180) scale(10.8624 6.61474)">
<stop offset="0.005618" stop-color="#A9D1EF"/>
<stop offset="0.5393" stop-color="#1998D5"/>
<stop offset="1" stop-color="#0073BB"/>
</radialGradient>
<radialGradient id="paint8_radial_5908_11969" cx="0" cy="0" r="1" gradientUnits="userSpaceOnUse" gradientTransform="translate(4.1737 8.44324) scale(25.889 16.1806)">
<stop offset="0.005618" stop-color="#D3DFF2"/>
<stop offset="0.5393" stop-color="#1998D5"/>
<stop offset="1" stop-color="#0073BB"/>
</radialGradient>
<radialGradient id="paint9_radial_5908_11969" cx="0" cy="0" r="1" gradientUnits="userSpaceOnUse" gradientTransform="translate(12.64 11.4819) rotate(180) scale(10.9239 6.63043)">
<stop offset="0.005618" stop-color="#A9D1EF"/>
<stop offset="0.5393" stop-color="#1998D5"/>
<stop offset="1" stop-color="#0073BB"/>
</radialGradient>
<radialGradient id="paint10_radial_5908_11969" cx="0" cy="0" r="1" gradientUnits="userSpaceOnUse" gradientTransform="translate(4.71751 8.80942) scale(26.0306 16.1142)">
<stop offset="0.005618" stop-color="#D3DFF2"/>
<stop offset="0.5393" stop-color="#1998D5"/>
<stop offset="1" stop-color="#0073BB"/>
</radialGradient>
<radialGradient id="paint11_radial_5908_11969" cx="0" cy="0" r="1" gradientUnits="userSpaceOnUse" gradientTransform="translate(12.2383 11.7067) rotate(180) scale(10.8221 6.63753)">
<stop offset="0.005618" stop-color="#A9D1EF"/>
<stop offset="0.5393" stop-color="#1998D5"/>
<stop offset="1" stop-color="#0073BB"/>
</radialGradient>
<radialGradient id="paint12_radial_5908_11969" cx="0" cy="0" r="1" gradientUnits="userSpaceOnUse" gradientTransform="translate(4.70136 8.76429) scale(26.0307 16.2108)">
<stop offset="0.005618" stop-color="#D3DFF2"/>
<stop offset="0.5393" stop-color="#1998D5"/>
<stop offset="1" stop-color="#0073BB"/>
</radialGradient>
<radialGradient id="paint13_radial_5908_11969" cx="0" cy="0" r="1" gradientUnits="userSpaceOnUse" gradientTransform="translate(12.3941 11.7325) rotate(180) scale(10.8228 6.63801)">
<stop offset="0.005618" stop-color="#A9D1EF"/>
<stop offset="0.5393" stop-color="#1998D5"/>
<stop offset="1" stop-color="#0073BB"/>
</radialGradient>
<radialGradient id="paint14_radial_5908_11969" cx="0" cy="0" r="1" gradientUnits="userSpaceOnUse" gradientTransform="translate(4.29772 8.65275) scale(26.1827 16.1717)">
<stop offset="0.005618" stop-color="#D3DFF2"/>
<stop offset="0.5393" stop-color="#1998D5"/>
<stop offset="1" stop-color="#0073BB"/>
</radialGradient>
<radialGradient id="paint15_radial_5908_11969" cx="0" cy="0" r="1" gradientUnits="userSpaceOnUse" gradientTransform="translate(12.1416 12.0184) rotate(180) scale(10.8597 6.63156)">
<stop offset="0.005618" stop-color="#A9D1EF"/>
<stop offset="0.5393" stop-color="#1998D5"/>
<stop offset="1" stop-color="#0073BB"/>
</radialGradient>
<radialGradient id="paint16_radial_5908_11969" cx="0" cy="0" r="1" gradientUnits="userSpaceOnUse" gradientTransform="translate(4.27763 8.62442) scale(26.1826 16.1716)">
<stop offset="0.005618" stop-color="#D3DFF2"/>
<stop offset="0.5393" stop-color="#1998D5"/>
<stop offset="1" stop-color="#0073BB"/>
</radialGradient>
<radialGradient id="paint17_radial_5908_11969" cx="0" cy="0" r="1" gradientUnits="userSpaceOnUse" gradientTransform="translate(12.1176 11.9876) rotate(180) scale(10.8597 6.63157)">
<stop offset="0.005618" stop-color="#A9D1EF"/>
<stop offset="0.5393" stop-color="#1998D5"/>
<stop offset="1" stop-color="#0073BB"/>
</radialGradient>
</defs>
</svg>
