<svg width="17" height="17" viewBox="0 0 17 17" fill="none" xmlns="http://www.w3.org/2000/svg">
<g clip-path="url(#clip0_49_97)">
<path d="M16.6304 16.1661H14.0246C13.9415 14.9159 13.4448 13.7798 12.6668 12.8914L14.6743 10.8839C14.8188 10.7394 14.8188 10.5058 14.6743 10.3613C14.5298 10.2168 14.2963 10.2168 14.1518 10.3613L12.1443 12.3688C11.2558 11.5909 10.1198 11.0942 8.86957 11.011V8.40523C8.86957 8.20123 8.70437 8.03566 8.5 8.03566C8.29563 8.03566 8.13043 8.20123 8.13043 8.40523V11.011C6.8802 11.0942 5.74415 11.5909 4.85572 12.3688L2.84824 10.3613C2.70374 10.2168 2.47017 10.2168 2.32567 10.3613C2.18117 10.5058 2.18117 10.7394 2.32567 10.8839L4.33315 12.8914C3.55522 13.7798 3.05852 14.9159 2.97537 16.1661H0.369565C0.165196 16.1661 0 16.3317 0 16.5357C0 16.7397 0.165196 16.9052 0.369565 16.9052H3.32535C3.32572 16.9052 3.32609 16.9052 3.32609 16.9052H3.32683H13.6728C13.6732 16.9052 13.6735 16.9052 13.6735 16.9052H13.6743H16.6304C16.8348 16.9052 17 16.7397 17 16.5357C17 16.3317 16.8348 16.1661 16.6304 16.1661ZM3.7145 16.1661C3.90446 13.6893 5.97587 11.7313 8.5 11.7313C11.0241 11.7313 13.0955 13.6893 13.2855 16.1661H3.7145Z" fill="#F7DD01"/>
<path d="M10.9788 2.32544L8.76179 0.108423C8.72779 0.0740534 8.68677 0.0470751 8.64131 0.0282273C8.55114 -0.00909883 8.44914 -0.00909883 8.35896 0.0282273C8.3135 0.0470751 8.27285 0.0740534 8.23848 0.108423L6.02146 2.32544C5.87696 2.46994 5.87696 2.70351 6.02146 2.84801C6.16596 2.99251 6.39953 2.99251 6.54403 2.84801L8.13057 1.26147V6.28238C8.13057 6.48638 8.29577 6.65195 8.50014 6.65195C8.7045 6.65195 8.8697 6.48638 8.8697 6.28238V1.26147L10.4562 2.84801C10.5283 2.92008 10.6229 2.95629 10.7175 2.95629C10.8121 2.95629 10.9067 2.92008 10.9788 2.84801C11.1233 2.70351 11.1233 2.46994 10.9788 2.32544Z" fill="#F7DD01"/>
</g>
<defs>
<clipPath id="clip0_49_97">
<rect width="17" height="17" fill="white"/>
</clipPath>
</defs>
</svg>
